# Blender 4.3.2
# www.blender.org
mtllib mytrash_sharing_bin.mtl
o Cube
v 0.430246 0.209507 -0.430246
v 0.500000 -0.500000 -0.500000
v 0.430246 0.500000 0.430246
v 0.500000 -0.500000 0.500000
v -0.430246 0.209507 -0.430246
v -0.500000 -0.500000 -0.500000
v -0.430246 0.500000 0.430246
v -0.500000 -0.500000 0.500000
v 0.500000 0.500000 0.500000
v -0.500000 0.500000 0.500000
v 0.500000 0.209507 -0.500000
v -0.500000 0.209507 -0.500000
v 0.430246 -0.258509 0.430246
v -0.430246 -0.258509 0.430246
v 0.430246 -0.258509 -0.430246
v -0.430246 -0.258509 -0.430246
vn 1.0000 -0.0000 -0.0000
vn -0.0000 -0.0000 1.0000
vn -1.0000 -0.0000 -0.0000
vn -0.0000 -1.0000 -0.0000
vn -0.0000 -0.0000 -1.0000
vn -0.0000 1.0000 -0.0000
vn -0.0000 0.9545 -0.2981
vt 0.423301 0.576699
vt 0.507065 0.824821
vt 0.288349 0.824821
vt 0.288349 0.576699
vt 0.576698 0.288349
vt 0.288349 0.288349
vt 0.288349 0.000000
vt 0.576698 0.000000
vt 0.000000 0.584693
vt 0.000000 0.296344
vt 0.288349 0.380108
vt 0.288349 0.584693
vt 0.576698 0.288349
vt 0.576698 0.576699
vt 0.288349 0.288349
vt 0.576698 0.288349
vt 0.576698 0.083763
vt 0.865048 0.000000
vt 0.865048 0.288349
vt 0.781284 0.824821
vt 0.576698 0.824821
vt 0.576698 0.536472
vt 0.781284 0.536472
vt 0.268236 0.019967
vt 0.020113 0.019967
vt 0.000000 -0.000000
vt 0.288349 -0.000000
vt 0.268236 0.276378
vt 0.288349 0.296344
vt 0.020113 0.276378
vt 0.823011 0.288349
vt 0.823011 0.536472
vt 0.576698 0.536472
vt 0.000000 0.832816
vt 0.000000 0.584694
vt 0.218716 0.584694
vt 0.218716 0.832816
vt 0.957963 0.288349
vt 0.957963 0.536472
vt 1.000000 0.536472
vt 0.916237 0.784594
vt 0.781284 0.784594
s 0
usemtl Material
f 5/1/1 7/2/1 14/3/1 16/4/1
f 4/5/2 9/6/2 10/7/2 8/8/2
f 8/9/3 10/10/3 12/11/3 6/12/3
f 6/13/4 2/14/4 4/4/4 8/15/4
f 2/16/1 11/17/1 9/18/1 4/19/1
f 6/20/5 12/21/5 11/22/5 2/23/5
f 3/24/6 7/25/6 10/26/6 9/27/6
f 1/28/7 3/24/7 9/27/7 11/29/7
f 7/25/7 5/30/7 12/10/7 10/26/7
f 5/30/6 1/28/6 11/29/6 12/10/6
f 15/31/6 16/32/6 14/33/6 13/5/6
f 7/34/5 3/35/5 13/36/5 14/37/5
f 1/32/2 5/31/2 16/38/2 15/39/2
f 3/40/3 1/41/3 15/42/3 13/23/3
